<mxfile host="app.diagrams.net" modified="2022-02-09T09:17:06.497Z" agent="5.0 (Windows NT 10.0; Win64; x64) AppleWebKit/537.36 (KHTML, like Gecko) Chrome/97.0.4692.99 Safari/537.36" etag="a_yxMixojIclltpk4-CI" version="16.5.4" type="github">
  <diagram id="4p9oSO8dbGGagojWUHIC" name="用户管理架构图">
    <mxGraphModel dx="782" dy="436" grid="1" gridSize="10" guides="1" tooltips="1" connect="1" arrows="1" fold="1" page="1" pageScale="1" pageWidth="827" pageHeight="1169" math="0" shadow="0">
      <root>
        <mxCell id="IEgARFhuaa5MBMOogKyb-0" />
        <mxCell id="IEgARFhuaa5MBMOogKyb-1" parent="IEgARFhuaa5MBMOogKyb-0" />
        <mxCell id="K-rb-uu4ZrpBbB3jOFOt-2" style="edgeStyle=orthogonalEdgeStyle;rounded=0;orthogonalLoop=1;jettySize=auto;html=1;exitX=0.5;exitY=1;exitDx=0;exitDy=0;" parent="IEgARFhuaa5MBMOogKyb-1" source="K-rb-uu4ZrpBbB3jOFOt-0" target="K-rb-uu4ZrpBbB3jOFOt-1" edge="1">
          <mxGeometry relative="1" as="geometry" />
        </mxCell>
        <mxCell id="K-rb-uu4ZrpBbB3jOFOt-0" value="" style="ellipse;whiteSpace=wrap;html=1;aspect=fixed;" parent="IEgARFhuaa5MBMOogKyb-1" vertex="1">
          <mxGeometry x="350" y="70" width="80" height="80" as="geometry" />
        </mxCell>
        <mxCell id="K-rb-uu4ZrpBbB3jOFOt-1" value="" style="rounded=0;whiteSpace=wrap;html=1;" parent="IEgARFhuaa5MBMOogKyb-1" vertex="1">
          <mxGeometry x="414" y="210" width="120" height="60" as="geometry" />
        </mxCell>
      </root>
    </mxGraphModel>
  </diagram>
</mxfile>
